<svg width="987" height="588" fill="none"               preserveAspectRatio="none"
 xmlns="http://www.w3.org/2000/svg" >
  <g clip-path="url(#a)">
    <path d="M867.38 0H461.74a12 12 0 0 0-12 12v262.64a12 12 0 0 0 12 12h405.65a12 12 0 0 0 12-12V12a12 12 0 0 0-12-12Z" fill="#D8E9F2"/>
    <g clip-path="url(#b)">
      <path fill-rule="evenodd" clip-rule="evenodd" d="M302.6 215.32c.04 1.95.27 3.93.66 5.9a18.07 18.07 0 0 0-7.26 7.66 211.65 211.65 0 0 0-18.06 51.69 20.5 20.5 0 0 0 10.1 22.08c3.86 2.12 7.95 4.08 12.23 5.84-4.04 44.38-3.3 111.92-1.5 151.55.09 1.74.19 4.4.3 7.62.37 9.7.92 24.4 1.68 33.87 7.4 1.85 14.67 3.28 21.66 4.36-.1 1.73-.23 3.37-.37 4.88-.8 8.64-3.32 14.3-6.68 18.29-4.08 4.84-9.37 7.2-14.26 9.37-7.75 3.44-14.46 6.42-13.58 18.17h103.51c1.25-10.3-3.74-12.7-9.85-15.64-4.84-2.32-10.38-4.98-14.07-12.18-2.13-4.19-3.64-9.91-4.02-18l-.07-1.7c14.58.08 23.82-1.02 23.81-1.02 1.32-34.66-.69-128.95-2.14-197.29v-.25l-.58-27.25.04-.06s1.17-3.84 2.63-9.56c12.9 11.95 29.6 25.94 44.58 25.94 6.7 0 18.47-6.28 29.26-12.03l3.34-1.78v-2.29c0-2.64-.06-5.03-.19-7.2 13.1-6.34 23.04-15.65 28.34-20.66a144 144 0 0 0 .48-3.38c.06.03.13.05.22.06.2.02.37 0 .39-.11.06-.28.12-.55.2-.83 1.96-2.16 4.12-5.1 4.12-7.74 0-.97-1.44-2.22-3.33-3.45a12 12 0 0 0 2.5-.18c.61-.1 1.2-.3 1.76-.55a5.3 5.3 0 0 0 2.7-2.77c.26-.65.4-1.33.39-2.03a7.9 7.9 0 0 0-1.06-3.81 12.61 12.61 0 0 0-1.66-2.33 15.68 15.68 0 0 0-6.3-4.28c-.84-.28-1.7-.47-2.58-.55a7.48 7.48 0 0 0-.62-1.2.35.35 0 0 0-.47-.06.35.35 0 0 0-.2.42c.14.26.27.52.37.8h-.53c-.29 0-.49.2-.47.4a.45.45 0 0 0 .5.36c.25 0 .5 0 .75.02a4.18 4.18 0 0 1 .13 1.32 6.18 6.18 0 0 1-.23 1.5l-.15.52-.12.42-.19.64c-.1.39-.23.79-.35 1.22a17.43 17.43 0 0 1-1.5 3.6l-.3.6c-.1.24-.22.47-.33.7a11.96 11.96 0 0 1-1.93-3.4c-.1-.27-.18-.54-.23-.82a4.45 4.45 0 0 1-.13-1.5c.04-.75.2-1.5.5-2.19a4.23 4.23 0 0 1 3.14-2.56.46.46 0 0 0 .42-.45c0-.2-.27-.33-.56-.3a5.18 5.18 0 0 0-3.87 2.94 7.4 7.4 0 0 0-.68 2.49 8.35 8.35 0 0 0 .6 3.73c.5 1.16 1.2 2.22 2.08 3.13l.05.06.03.03-.48.86a13.92 13.92 0 0 0-2.88-1.37 10.37 10.37 0 0 0-3.9-.49.4.4 0 0 0-.27.38.43.43 0 0 0 .45.35c1.17.02 2.34.2 3.45.56.88.3 1.7.71 2.49 1.2l.2.14-.18.3c-.33.56-.66 1.12-.98 1.7-.11-.44-.3-.87-.56-1.25a1.14 1.14 0 0 0-1.58-.24 56.37 56.37 0 0 1-6.77 3.92 4.22 4.22 0 0 1-.16-.56 3.66 3.66 0 0 1-.12-1.4 5.5 5.5 0 0 1 .46-2 3.93 3.93 0 0 1 2.9-2.3.45.45 0 0 0 .4-.43c0-.2-.25-.35-.52-.32a4.85 4.85 0 0 0-3.63 2.67 6.42 6.42 0 0 0-.6 4c.04.3.1.58.19.86a29.45 29.45 0 0 1-6.02 2.14 3.8 3.8 0 0 0-2.78 2.32 291.4 291.4 0 0 0-3.92 10.58l-.23-1.03c-2 .78-4.1 1.64-6.26 2.53-7.17 2.95-15 6.18-22.44 7.45l-.25-.42-.25-.42-.67-1.14c-7.88-13.43-19.55-33.32-32.92-43.48v-.36c-.33-13.28-10.78-27.14-22.16-37.25-1.76-22.27-11.03-39.86-33.94-39.28-17.14.44-31.43 12.71-30.85 36.88.09 2.84.34 5.67.75 8.49-5.02 7.69-9.26 15.98-9.02 25.63Zm188.55 23.09c.3.1.62.2.94.27.4.11.8.2 1.2.26 2.06.35 4.5 0 5.84-1.42a4.08 4.08 0 0 0 1.08-2.87 7.88 7.88 0 0 0-.85-3.24 13.1 13.1 0 0 0-3.11-4.01l-2 2.19a69.4 69.4 0 0 0-1.56 1.8c-.7.8-1.36 1.64-2.03 2.47l-.07.1-1.32 1.62c-.34.43-.7.86-1.07 1.29a8.33 8.33 0 0 0 .2.13c.84.42 1.79.9 2.75 1.41Zm-12.38 9.06c-.22-.15-.44-.3-.66-.47l.26-.22c.6-.6 1.23-1.16 1.88-1.7l.75-.45-.82 1.46c-.2.35-.39.7-.57 1.06l-.84.32Zm-2.17.85-.07.02.6-.5.17-.16.32.23-1.02.41Zm5.18-2.26c-.32.17-.63.37-.93.57l.03-.06.04-.08v-.01a43.27 43.27 0 0 1 2.15-3.5v-.01h.01l.83-1.28.45-.75.32-.31.85-.87.54-.56c.42 1.03 1.46 2.04 2.59 2.96.33.64.56 1.32.69 2.02l-1.24.31a9.02 9.02 0 0 0-1.62.02l-.19.02-.16.01-.7.15c-1.28.28-2.5.75-3.66 1.37Zm8.88-2.19.18-.04-.22-.17.01.07.03.14Zm-3.05-9.15-.58 1.13.15.14c.38-.43.77-.86 1.17-1.28l1.43-1.5c.75-.8 1.5-1.61 2.24-2.43l1.61-1.78c.6-.66 1.31-1.42 2.03-2.09-.24-.18-.48-.36-.73-.52a11.43 11.43 0 0 0-4.7-1.86l.11.47c.05.24.08.5.08.74a12.17 12.17 0 0 1-.07 1.74c-.04.35-.1.68-.17 1.02l-.01.04c-.17.66-.38 1.3-.65 1.93-.37.8-.71 1.62-1.05 2.42l-.55 1.28-.3.55Z" fill="#000" fill-opacity=".6" style="mix-blend-mode:overlay"/>
    </g>
    <path d="M335.79 179.2c-16.77-.31-29.77-19.39-30.18-35.7-.24-9.65 4-17.94 9.02-25.63-.4-2.81-.65-5.65-.74-8.49-.59-24.17 13.71-36.44 30.84-36.88 22.92-.58 32.19 17.01 33.95 39.28 11.38 10.11 21.83 23.97 22.15 37.26.46 17.95-16.87 28.47-36.81 30.3M326.13 400.32s.22 24.74-1.07 38.63c-.8 8.64-3.32 14.3-6.68 18.3-10.56 12.53-29.27 8.38-27.84 27.53h103.5c2.25-18.47-15.58-11.54-23.9-27.81-2.15-4.2-3.66-9.92-4.03-18.02-.58-12.78-.58-36.4-.58-36.4" fill="#002776"/>
    <path d="M357.58 120.6c-.18 3.78-.89 12.18.05 17.86 1.09 6.63 8.97 5.55 11.09 6.83l-2.78 20.48-39.56-.27-1.33-19.45c3.55-1.14 13.45-.28 10.84-13.56-.3-1.5-.54-3-.75-4.08" fill="#F8E9DD"/>
    <path d="M361.5 124.71c-3.96 4.27-10.75 7.9-17.52 8.07-15.02.38-21.34-12.88-21.68-26.14-.14-5.54.23-8.02 1.5-12.41a57.7 57.7 0 0 0 13.6-12.93c2.78 7.89 9.58 15.64 18.69 21.43 0 0-.49 13.9 5.42 21.98Z" fill="#F8E9DD"/>
    <path d="M359.02 246.58c-26.37.67-49.64-5.67-67.96-15.75a20.49 20.49 0 0 1-10.1-22.08 211.7 211.7 0 0 1 18.06-51.69 18.03 18.03 0 0 1 13.87-9.84c4.48-.58 9.02-1.1 13.61-1.56 4.02 17.45 29.59 20.04 37.8-2.47l3.74-.1c5.54-.14 11-.2 16.37-.18 8.84.05 10.72 10.52 10.98 22.86.36 17.48-8.22 45.62-8.22 45.62s-16.3 30.2-28.15 35.2Z" fill="#EE8D9C"/>
    <path d="M303.77 429.71c-1.02-12.6-1.65-34.48-1.98-41.49-2.3-50.67-2.87-146.99 6.07-182.16 27.04-.52 57.05-.3 79.27 5.32 1.39 67.62 4.23 185.23 2.72 224.87.02 0-40.8 4.83-86.08-6.54Z" fill="#005AA4"/>
    <path d="M343.43 380.26c.32 10.64.68 21.65.84 32.49l.38 16.23.25 8.38.22 7.7.23 11.1c.1 7.02.18 14.03.07 21.03 0 1.25.15 2.24.35 2.24.2 0 .38-.98.4-2.24.18-7.06.17-14.12.13-21.17l-.13-11c0-2.57-.06-5.14-.1-7.71l-.13-8.4c-.12-5.01-.26-10.32-.47-16.28a2083 2083 0 0 1-.9-32.42l-.14-5.53c-.32-10.29-.53-20.78-.68-30.93l-.46-33.38-.09-6.23-.04-6.22c0-3.27-.02-6.55-.06-9.84l.06-9.86c0-4.73.13-9.45.26-14.2.1-5.9.4-11.98.62-18 .04-1.22-.08-2.2-.28-2.21-.2-.02-.41.94-.47 2.17-.3 6.03-.61 12.14-.75 18.05l-.18 7.07c-.06 2.36-.07 4.73-.12 7.1l-.15 9.88-.06 9.88-.05 6.2v6.16c0 11.18.23 22.49.49 33.42l.75 30.9.2 5.62ZM495.1 166.86a10.47 10.47 0 0 1-5.68-3.52 11.95 11.95 0 0 1-2.1-3.62c-.1-.27-.18-.54-.23-.82a4.67 4.67 0 0 1-.13-1.5c.04-.75.2-1.5.5-2.19a4.26 4.26 0 0 1 3.14-2.55.46.46 0 0 0 .41-.45c0-.2-.26-.34-.55-.3a5.2 5.2 0 0 0-3.87 2.93 7.4 7.4 0 0 0-.68 2.5 8.34 8.34 0 0 0 .6 3.73c.5 1.16 1.2 2.22 2.07 3.13.88.88 1.86 1.66 2.92 2.32a12.22 12.22 0 0 0 4.63 1.76 12 12 0 0 0 3.58-.1c.61-.1 1.2-.29 1.76-.55a5.3 5.3 0 0 0 2.7-2.77c.26-.64.4-1.33.39-2.02a7.89 7.89 0 0 0-1.06-3.82 12.56 12.56 0 0 0-1.66-2.33c-1-1.1-2.15-2.08-3.41-2.88a15.62 15.62 0 0 0-2.9-1.4c-1.29-.44-2.65-.64-4.02-.58-.29 0-.49.2-.47.4a.46.46 0 0 0 .49.35c2.29 0 4.53.7 6.42 2a13.14 13.14 0 0 1 4.42 5.01c.52 1 .8 2.12.86 3.25a4.08 4.08 0 0 1-1.08 2.87c-1.34 1.42-3.78 1.76-5.84 1.41-.4-.06-.8-.15-1.2-.26ZM485 176.99a9.67 9.67 0 0 1-5.28-3.15 11.18 11.18 0 0 1-2-3.3c-.1-.25-.17-.5-.22-.76a3.84 3.84 0 0 1-.12-1.4 5.5 5.5 0 0 1 .46-2 3.92 3.92 0 0 1 2.9-2.3.45.45 0 0 0 .4-.43c0-.2-.25-.34-.52-.31a4.84 4.84 0 0 0-3.64 2.66 6.42 6.42 0 0 0-.6 4c.05.31.12.61.2.9.09.3.19.6.31.87a9.57 9.57 0 0 0 2 2.87 13.8 13.8 0 0 0 5.88 3.4c.38.11.77.2 1.16.25 1.1.12 2.21.09 3.3-.1a5.97 5.97 0 0 0 3.1-1.45 4.73 4.73 0 0 0 1.49-3.47 7.18 7.18 0 0 0-1.03-3.53c-.45-.77-.98-1.48-1.59-2.13a14.62 14.62 0 0 0-5.9-3.83 10.41 10.41 0 0 0-3.9-.5.39.39 0 0 0-.13.09.4.4 0 0 0-.13.29.44.44 0 0 0 .45.35c1.17.02 2.34.21 3.45.57a11.5 11.5 0 0 1 5.33 3.77c.5.61.94 1.28 1.3 1.98.48.91.75 1.91.8 2.94a3.51 3.51 0 0 1-1 2.59c-1.24 1.27-3.47 1.58-5.38 1.27-.36-.03-.72-.08-1.09-.14Z" fill="#002776"/>
    <path d="M483.43 171.53a29.34 29.34 0 0 1-4.05 3.57c-.79.59-1.5 1.08-2.19 1.55-.38.25-.74.53-1.13.75a10.27 10.27 0 0 1-2.74 1.21c-1.1.2-2.25.2-3.35 0a.38.38 0 0 0-.44.3.38.38 0 0 0 .07.29.36.36 0 0 0 .24.15c1.2.29 2.46.35 3.7.19.32-.05.64-.13.95-.24.3-.09.61-.2.9-.33.44-.17.83-.36 1.24-.55.4-.2.86-.46 1.27-.7.79-.52 1.54-1.08 2.25-1.7 1.36-1.24 2.75-2.47 4.08-3.7l.68-.64c1.2-1.27 2.45-2.52 3.64-3.74a52.93 52.93 0 0 0 3.73-4.18l1.33-1.62c.7-.87 1.38-1.73 2.1-2.57.5-.6 1.03-1.2 1.56-1.8l2.03-2.24a.4.4 0 0 0 0-.53.38.38 0 0 0-.52 0c-.75.7-1.5 1.5-2.13 2.19l-1.6 1.77-2.25 2.44-1.43 1.5c-1.3 1.36-2.52 2.8-3.74 4.18a50.43 50.43 0 0 1-3.55 3.74l-.65.7Z" fill="#002776"/>
    <path d="M490.94 162.35c.52-1.2 1.03-2.46 1.6-3.7.27-.62.48-1.27.65-1.93a11.37 11.37 0 0 0 .17-3.54 7.47 7.47 0 0 0-1.02-2.51.35.35 0 0 0-.47-.06.35.35 0 0 0-.2.42c.4.7.65 1.48.75 2.28v.62c0 .2-.03.41-.06.62-.04.3-.1.59-.17.87-.08.32-.19.63-.27.95l-.54 1.85a17.48 17.48 0 0 1-1.5 3.6l-.3.6a30.45 30.45 0 0 1-1.75 3.33c-.67 1.14-1.38 2.31-2 3.53l-.68 1.36c-.37.75-.75 1.43-1.12 2.14l-.83 1.5c-.37.63-.7 1.3-1 1.97a.4.4 0 0 0 .67.33c.36-.63.75-1.28 1.06-1.9.29-.5.57-1 .88-1.5.41-.69.85-1.36 1.3-2.03l.81-1.28c.73-1.15 1.4-2.35 2-3.58.55-1.11 1.1-2.24 1.71-3.39l.3-.55Z" fill="#002776"/>
    <path d="M493.26 182.72c.14-.31 7.28-6.1 7.28-10.9 0-2.19-7.2-5.75-10.54-7.3a2.53 2.53 0 0 0-1.1 1.96c0 2.47 4.48 4.94 6.08 6.45-2.65 4.24-4.33 4.6-5.55 6.49" fill="#F8E9DD"/>
    <path d="M459.7 192.8c1.85-1.45 7.43-14.17 19.92-16.3 4.77-1.94 9.7-3.49 14.74-4.6a1.6 1.6 0 0 1 1.94 1.66c-.21 3.13-.65 6.81-1.18 10.26-7.26 6.85-23.23 21.81-44.1 26.08" fill="#F8E9DD"/>
    <path d="m461.34 193.86-.07.22c.24-1.5 3.44-10.99 6.5-18.76a3.8 3.8 0 0 1 2.79-2.31c4.16-.87 10.15-4.04 13.87-6.6a1.15 1.15 0 0 1 1.58.25c.44.66.68 1.42.68 2.2 0 5.3-8.7 4.03-9.16 11.87" fill="#F8E9DD"/>
    <path d="M487.36 177.17c.53.14 1 .44 1.36.86.56.68 1 1.45 1.27 2.28.55 1.66.85 3.38.87 5.12 0 .3.18.56.38.57.2 0 .37-.25.38-.57.03-1.84-.22-3.68-.75-5.44a7.93 7.93 0 0 0-1.35-2.64 3.84 3.84 0 0 0-2.36-1.43c-.8-.07-1.6.09-2.3.46a9 9 0 0 0-1.85 1.24c-1.08.94-2 2.06-2.7 3.3-.26.45-.46.91-.62 1.4-.1.33-.15.67-.17 1.02-.02.93.2 1.85.64 2.67a4.3 4.3 0 0 0 1.91 2 2.33 2.33 0 0 0 2.13-.1 3.8 3.8 0 0 0 1.38-1.45 6.23 6.23 0 0 0 .56-4.76c-.07-.31-.3-.52-.5-.46-.2.05-.28.32-.23.62.13.7.16 1.44.08 2.16-.08.7-.3 1.38-.65 2-.24.46-.6.85-1.05 1.12a1.42 1.42 0 0 1-1.35 0 3.4 3.4 0 0 1-1.41-1.62 4.32 4.32 0 0 1-.4-2.17 6.34 6.34 0 0 1 .68-1.95c.6-1.16 1.4-2.2 2.4-3.06.96-.82 2.24-1.5 3.3-1.3.12.03.24.07.35.13Z" fill="#002776"/>
    <path d="M478.35 188.16c.17-.08.34-.18.52-.25l.79-.26.75-.2.74-.12c.1 0 .16-.2.16-.4s-.1-.36-.2-.35h-.87l-.86.1-.89.19-.62.15-.14.04c-.78.44-1.6.8-2.36 1.25l-.39.23-.22.2c-.4.34-.8.75-1.18 1.08-.27.28-.55.54-.81.83-.37.37-.67.8-.88 1.27-.06.16.09.3.29.31.13.02.26.02.4 0 .24-.36.5-.7.8-1a8.23 8.23 0 0 1 2.02-1.6l.24-.13c.1-.09.22-.17.34-.25.65-.5 1.4-.87 2.2-1.07l.17-.02ZM493.53 177.51c.04.46.04.93 0 1.4a16.2 16.2 0 0 1-.3 2.03c-.27 1.3-.63 2.6-.9 3.93a.38.38 0 0 0 .28.46c.1.02.2 0 .3-.06a.38.38 0 0 0 .16-.24c.32-1.28.75-2.57 1.1-3.9.18-.69.33-1.4.43-2.1a11.76 11.76 0 0 0 .12-1.94 6.25 6.25 0 0 0-1.24-3.16c-.4-.48-.91-.84-1.5-1.05a4.27 4.27 0 0 0-1.71-.22c-.38 0-.75.04-1.11.06l-.7.15c-1.28.29-2.5.75-3.66 1.37a9.71 9.71 0 0 0-2.28 1.7 5.48 5.48 0 0 0-1.57 3.27c0 .25.12.46.32.46.1 0 .2-.03.28-.1a.43.43 0 0 0 .14-.26 5.12 5.12 0 0 1 1.44-2.79 7.5 7.5 0 0 1 2.1-1.5c1.08-.53 2.24-.9 3.44-1.06l.63-.07c.34-.04.67-.1 1.01-.1a2.53 2.53 0 0 1 2.36.81c.56.75.85 1.67.83 2.6l.03.31ZM495.92 177.3c0 .18-.05.38-.08.56l-.15.82a18.3 18.3 0 0 0-.22 1.6c0 .1.15.2.36.22.2.02.37 0 .38-.12.11-.5.25-1 .4-1.5l.26-.78.18-.55.06-.13c.06-.82.26-1.64.34-2.5v-.46c0-.1 0-.2-.06-.3a3.34 3.34 0 0 0-.67-1.59 2.74 2.74 0 0 0-1.02-.74c-.47-.2-.98-.29-1.5-.25-.1 0-.18.17-.18.37 0 .2.07.37.16.38.4.04.78.13 1.15.27.27.1.5.29.65.52.21.35.31.75.29 1.15v.61c.01.78-.12 1.55-.4 2.28l.05.13ZM481.39 174.97c.73-.73 1.5-1.41 2.3-2.06.4-.33.78-.68 1.14-1.05l.53-.6.47-.56.7-.8 1.3-1.5c.07-.08 0-.27-.14-.4-.14-.14-.34-.19-.42-.1l-1.44 1.38-.75.7-.55.48-.6.51c-.34.32-.68.68-1.06 1.1-.67.76-1.43 1.46-2.25 2.06l-.4.32a15.8 15.8 0 0 1-2.28 1.74c-.84.56-1.74 1.06-2.6 1.58-.34.17-.66.37-1 .51a5.04 5.04 0 0 1-2.92.5c-.53-.03-1.08-.11-1.64-.17-.11 0-.23.13-.27.34-.04.2 0 .37.13.4a9.69 9.69 0 0 0 5.09-.07c.4-.1.75-.27 1.16-.42 1-.44 1.92-1.02 2.76-1.7.75-.6 1.54-1.26 2.32-1.85l.42-.34Z" fill="#002776"/>
    <path d="M379.7 192.37c13.2 12.16 35.37 35.4 54.68 35.4 7.4 0 20.99-7.66 32.6-13.8v-2.3c0-15.15-2.3-21.92-3.35-26.8-8.67 3.37-19.03 8.33-28.7 9.98-10.83-18.39-29.77-51.93-50.5-51.94 0 0-10.8 1.4-11.68 15.15-.86 13.76 6.95 34.31 6.95 34.31ZM332 111.03l.63-1.04c.3-.5.59-1.02.86-1.55.51-.99.94-2.02 1.27-3.08a.36.36 0 0 0-.11-.4.34.34 0 0 0-.13-.06.38.38 0 0 0-.47.2c-.37 1.02-.85 1.98-1.4 2.9a25.5 25.5 0 0 1-1.6 2.38l-.18.22c-.42.75-.9 1.41-1.38 2.15-.26.4-.47.81-.63 1.25-.05.14-.08.27-.1.41a1.28 1.28 0 0 0 .58 1.33c.3.2.63.34.98.42.21 0 .41.06.62.08a26.22 26.22 0 0 0 5.38-.22c.96-.19 1.89-.48 2.77-.89a.38.38 0 0 0 .19-.48.36.36 0 0 0-.45-.22c-.86.31-1.74.56-2.64.75-.7.11-1.42.16-2.14.15-1 .03-2-.03-2.99-.2a4.03 4.03 0 0 1-.47-.1c-.21-.04-.42-.11-.61-.21-.1-.07-.12-.1-.13-.16a.28.28 0 0 1 0-.14c0-.07 0-.14.03-.2.12-.36.29-.7.5-1.01.46-.7.96-1.39 1.49-2.04l.13-.24Z" fill="#EE8D9C"/>
    <path d="M343.5 98.2a3.8 3.8 0 0 0-1.52.93 3.94 3.94 0 0 0-.93 1.66c-.04.12.07.23.22.28.15.05.32 0 .35-.08.18-.51.49-.96.9-1.32a2.31 2.31 0 0 1 1.22-.56h.13a4.03 4.03 0 0 1 2.85.3 5.51 5.51 0 0 1 1.64.82c.3.22.6.47.87.74.34.4.74.77 1.17 1.08a.22.22 0 0 0 .21-.01.22.22 0 0 0 .11-.19v-.32c-.28-.24-.65-.68-1-1.03-.35-.34-.58-.57-.9-.84a8.19 8.19 0 0 0-1.47-.98l-.28-.15a7.1 7.1 0 0 0-1.92-.37c-.5-.06-1-.06-1.5 0l-.15.05ZM328.96 100.08c.14.03.27.06.4.11.19.09.36.2.53.31.33.24.62.53.85.87.04.05.2 0 .33-.05.14-.05.22-.2.18-.28a4.7 4.7 0 0 0-1.5-1.6c-.16-.1-.33-.18-.5-.25l-.12-.05a4.1 4.1 0 0 0-2.66.44l-.2.16c-.34.28-.65.59-.95.92-.2.25-.4.48-.58.75-.25.32-.44.7-.56 1.09 0 .11.1.2.26.22.17.02.3 0 .31-.04.16-.31.33-.6.54-.88.4-.55.9-1 1.5-1.33l.18-.07c.08-.07.17-.12.26-.17a1.8 1.8 0 0 1 1.66-.16l.07.01Z" fill="#002776"/>
    <path d="M344.98 104.66a7.22 7.22 0 0 1-.2-1.71c0-1.08.28-2.56 1.34-2.56 1.21 0 1.55 1.5 1.55 2.69 0 1.18-.52 2.99-1.57 2.99-.48.03-.9-.5-1.12-1.41Z" fill="#002776"/>
    <path d="M347.02 104.33c-.04.23-.1.45-.2.66-.1.27-.27.5-.5.67a.42.42 0 0 1-.55-.07c-.2-.22-.35-.47-.44-.75a.3.3 0 0 0-.36-.12.27.27 0 0 0-.17.1.25.25 0 0 0-.05.1v.1c.1.4.29.76.55 1.07.16.19.38.32.63.37.25.05.51 0 .75-.1.4-.22.71-.56.9-.97.13-.25.25-.5.35-.75l.06-.19c.1-.58.12-1.17.08-1.76-.02-.6-.16-1.2-.42-1.75-.12-.2-.27-.4-.45-.56a1.82 1.82 0 0 0-1.08-.32c-.24 0-.46.08-.66.2-.35.22-.62.57-.75.97-.17.48-.26.98-.28 1.5-.02.62.04 1.25.2 1.86a.26.26 0 0 0 .33.15c.16 0 .27-.16.25-.27a9.61 9.61 0 0 1-.1-1.72c0-.43.1-.86.26-1.26.08-.23.24-.43.45-.55a.61.61 0 0 1 .29-.05c.1.01.21.04.31.08l.17.14c.1.08.19.18.26.29.22.42.35.88.37 1.35a3.5 3.5 0 0 1-.19 1.5l-.01.08ZM327.28 104.45v-.96c0-1.1.47-2.71 1.19-2.71s1.06 1.86 1.06 2.53v.06c-.06 1.29-.75 2.47-1.44 2.47-.4 0-.76-.4-.8-1.39Z" fill="#002776"/>
    <path d="M328.82 104.4c-.05.19-.12.37-.2.54-.1.2-.26.38-.46.5-.15.06-.21.06-.34-.1-.13-.24-.2-.5-.22-.76 0-.1-.16-.17-.32-.16-.16 0-.3.1-.28.22 0 .35.08.7.24 1.02.1.2.28.36.49.45.23.09.48.09.7 0 .37-.15.69-.4.9-.75a3.96 3.96 0 0 0 .44-.81c.12-.5.17-1.03.13-1.55a6.96 6.96 0 0 0-.45-2 2.34 2.34 0 0 0-.25-.33.95.95 0 0 0-1.28-.17c-.28.23-.49.53-.6.87a5.88 5.88 0 0 0-.34 2.86c0 .1.14.18.3.17.16 0 .3-.1.3-.2v-.74c0-.25.03-.5.07-.75.05-.37.16-.73.32-1.07.07-.2.2-.36.36-.49l.06-.01a.13.13 0 0 1 .11.04l.03.05.09.2a4.76 4.76 0 0 1 .45 1.6c.03.4-.05.8-.22 1.18a.92.92 0 0 0-.03.2ZM346.53 132.93a13.9 13.9 0 0 0 3.5-.77c1.27-.45 2.42-1.05 3.62-1.55a.38.38 0 0 0 .27-.45c-.05-.14-.28-.2-.5-.11-1.23.47-2.43 1.02-3.65 1.4a13.4 13.4 0 0 1-3.32.56h-.33c-1.98.2-3.97.14-5.92-.2-.34-.04-.67-.12-1-.18l-.65-.1a23.57 23.57 0 0 1-3.49-.9 18.32 18.32 0 0 1-5.13-2.78.4.4 0 0 0-.51 0c-.11.12-.06.33.11.49.86.76 1.81 1.4 2.83 1.93.8.41 1.62.75 2.45 1.1 1.17.43 2.36.8 3.56 1.1.22.04.43.1.65.15.34.05.7.12 1.04.16 2.03.24 4.08.33 6.12.26l.35-.1ZM330.13 94.28c.16 0 .33-.06.5-.08l.75-.06c.45 0 .92-.04 1.39-.06.08 0 .15-.14.15-.3.01-.15-.06-.3-.14-.3l-1.42-.1h-1.43c-.75.16-1.5.24-2.25.42a3 3 0 0 0-.37.1l-.23.1a13.56 13.56 0 0 0-2.03 1.18c-.35.24-.67.5-.96.79-.06.06 0 .2.09.33.09.12.24.17.3.13.32-.23.63-.48.95-.7a5.88 5.88 0 0 1 1.92-.9l.21-.04.33-.12a5.48 5.48 0 0 1 2.04-.32l.2-.07ZM345.26 92.65l-.6-.04h-.88c-.56 0-1.11.07-1.66.19-.1 0-.14.17-.1.33.03.15.12.27.2.26a7.56 7.56 0 0 1 1.55 0c.26 0 .53.06.8.1.25.03.36.07.54.12l.13.03c.78.06 1.54.28 2.24.62l.36.18.25.09c.44.17.86.4 1.25.66.28.2.53.4.75.65.29.31.54.65.75 1.01.05.08.2.08.35 0 .14-.07.23-.2.19-.28a4.4 4.4 0 0 0-.83-1.2 10.24 10.24 0 0 0-2.13-1.63l-.24-.15-.41-.16c-.8-.29-1.63-.5-2.45-.74l-.06-.04ZM340.29 122.06c5.44-4.26 6.33-6.05 7.47-5.89.75.1.83 1.6.71 2.45-.27 2.04-3.2 4.64-6.18 4.24a4.3 4.3 0 0 1-2-.8Z" fill="#002776"/>
    <path d="M346.37 121.16a5.83 5.83 0 0 1-2.53 1.32 4.29 4.29 0 0 1-3.1-.45.34.34 0 0 0-.44 0c-.09.12 0 .32.17.43 1.05.65 2.3.88 3.52.64a7.58 7.58 0 0 0 2.9-1.32l.24-.2a6.22 6.22 0 0 0 1.58-2.34c.14-.46.2-.94.2-1.42.01-.5-.08-1-.28-1.46-.1-.2-.25-.37-.44-.49a.93.93 0 0 0-.36-.13h-.32a1.7 1.7 0 0 0-.7.27c-.46.32-.9.69-1.28 1.09l-1.16 1.1c-.56.54-1.13 1.04-1.72 1.5l-2.24 1.88a.33.33 0 0 0-.12.42.32.32 0 0 0 .44 0 46.6 46.6 0 0 0 2.3-1.83l1.76-1.5 1.2-1.06c.37-.35.77-.66 1.2-.92a1 1 0 0 1 .38-.12h.2c.07.04.12.1.16.16.27.72.3 1.51.07 2.25a4.5 4.5 0 0 1-1.44 1.94l-.19.24ZM958.43 705c3.83-17.25 13.08-37.64 13.88-61.55a84.54 84.54 0 0 0 7.99-20.2v-.11c1.3-5.13-12.28-12.09-9.1-28.48 7.14-3.47 10.58-12.46 12.65-24.94 10.98-66.38-10.34-104.64-13.78-119.73-17.94-9.56-41.1-19.8-55.17-22.9l-.65.27-.68 3.74-.04.21-.2.1c-3.85 1.64-8.73 2.23-13.76 2.23-10.38 0-21.44-2.53-25.66-3.6h-.12l-2.12-2.44-1.62.63v-3.67l-30.7 11.88c-10.67-10.72-24.3-18.29-35.65-23.29 8.57-12.56 13.04-26.66 11.79-44.64-1.26-17.98-7.18-30.45-16.82-39.1-10.96-9.83-26.85-13.01-41.35-12.92-2.24 0-4.1.09-5.39.18-40.42 2.84-49.38 46.63-61.17 55.72-11.78 9.09-33.07 13.75-44.21 28.82a83.73 83.73 0 0 0-17.2-9.03c7.64-6.11 12.02-16.11 12.2-29.53a34.37 34.37 0 0 0 7.8-4.2 1.96 1.96 0 0 0 .78-1.36 1.94 1.94 0 0 0-.49-1.5c-2.71-3.04-6.4-7.04-10-10.9a53.14 53.14 0 0 0-5.05-13.45l2.77-1.38a9.38 9.38 0 0 0-1.7-.17c-.61 0-1.21.09-1.8.25a35.31 35.31 0 0 0-3.83-5.29c-1-14.03-27.65-27.26-40.9-27.26-3.37 0-7.23 1.2-7.23 3.9 0 1.96 4.23 5.35 9.85 8.97h-.08c-5.8 0-19.55 1.04-19.55 6.44 0 1.7 1.87 3.16 4.4 4.3-7.85 2.46-19.26 7-19.26 13.08 0 2 1.96 4.39 5.98 4.39 2.25-.09 4.47-.57 6.56-1.42-.7 2.96-1.03 6-1.02 9.05 0 12.82 5.45 25.97 9.26 38.44-11.72.5-24.29 2.72-33.86 11.84.38-2.08.6-4.18.67-6.3.31-12.36-5.13-23.02-11.56-32.84.52-3.6.83-7.23.93-10.87.75-30.99-17.53-46.67-39.47-47.22-19.87-.5-31.72 9.67-38 25.13-.7-.33-1.47-.5-2.25-.5-5.37.13-9.56 6.55-9.36 14.34.13 5.23 2.25 9.78 5.24 12.12-14.2 12.89-27.11 30.26-27.53 46.94v2.2a26.79 26.79 0 0 0-4.38 7.7c-1.5 4.07-2.88 8.23-4.21 12.32-8.02-11.85-18.8-24.48-33.06-32.65 22.5-6.47 22.51-25.83 21.23-34.4 3.24-.5 6.33-1.7 9.06-3.5a2.56 2.56 0 0 0 .38-3.93c-3.99-4.13-8.88-9.26-12.7-13.5a33.52 33.52 0 0 0-3.37-7.48c.61-.98.96-2.1 1-3.26 0-10.13-10.3-19.02-22.2-20.33-7.76-.86-21.67-1.37-30.68 14.15-11.96.04-14.07 16.54-14.07 32.5 0 8.93 3.85 17.68 8.38 23.53a69.3 69.3 0 0 0-1.39 9.37c-15.13 4.25-30.11 15.56-41.26 27.13-2.62-3.03-5.4-5.9-8.35-8.6-3.08-3.74-7.37-7.2-13.46-10.54-.25-.14-.55-.27-.82-.4a20.67 20.67 0 0 0 3.04-3.6c.19-.28.36-.58.5-.9h.13c15.5 0 32.89-15.38 32.89-27.45 0-6.28-7.67-10.01-7.67-17.69 0-5.3 1.64-9.52 1.64-13.6 0-9.17-11.83-17.25-21.57-17.25-3.83 0-7.59.92-11.43 2-7.67-6.18-16.2-8.98-24.14-8.98-15.7 0-29.15 11.05-29.15 29 .03 3.55.5 7.08 1.41 10.51-3.99 4.55-7.7 11.36-7.7 18.48 0 9.07 5.13 18.34 12.97 24.6a75.8 75.8 0 0 0 15.52 3.47c-14.1 4.15-21.4 13.36-24.7 27.47-7.66-15.07-19.58-28.54-37.72-39.78a84.62 84.62 0 0 0 1.6-15.6c10.75-1.8 18.3-6.49 18.14-21.01a62.2 62.2 0 0 0-.58-6.52h1.4c2.33 0 4.84-.5 4.84-2.84 0-2.91-4.9-8.69-9.07-13.68-.68-3.12-1.4-6.08-2.12-8.55a47.4 47.4 0 0 0 11.4 1.66c3.47 0 4.18-.51 6.02-.98-1.03-5.99-10.47-11.22-19.83-12.46 9.1-1.1 16.64-5.52 19.27-12.07-.66-.61-2.1-.85-3.97-.85-19.7 0-45.84 12.5-62.03 21.1-.53-10.12-4.49-21.24-14.66-21.24-11.14 0-23.56 16.7-23.56 27.84v.08c0 11.91 7.1 18.53 17.03 18.53 4.48 0 7.76-1.72 10.96-4.2a94.26 94.26 0 0 0-.55 9.86c0 12.1 2.85 21.4 12.96 23.35.81.15 1.64.2 2.46.16.82 6.54 1.67 13.28 2.19 16.98-8.66 9.1-17.2 24.83-24.67 41.99a202.76 202.76 0 0 0-30.9-21.02 64.91 64.91 0 0 0 2.34-18.08c0-.99 0-2-.06-3-5.86-2.24-13.96-5.3-25.1-9.47a25.47 25.47 0 0 0 4.89-5.32c.5-.66.93-1.36 1.4-2.05a29.59 29.59 0 0 0 3.28-7.19c.24-.82.45-1.66.68-2.5l.32-1.26.18-.75c0-.1.33-.04.48-.06l1.18-.06a42 42 0 0 0 2.57-.2c.61-.07 1.22-.18 1.81-.31.91-.23 1.77-.6 2.55-1.12a3.79 3.79 0 0 0 1.6-2.73c.14-2.07-.61-3.65-1.23-5.17a62.73 62.73 0 0 0-5.3-9.15l-1.1-1.6c-.32-.49-.92-1.28-.83-1.21l-.65-6.13-.49-4.44a70.32 70.32 0 0 0-.83-5.6.69.69 0 0 0-.74-.58c-.14-.84-.29-1.63-.44-2.37.54-.1 1.09-.23 1.63-.39 1.3-.33 2.5-1 3.47-1.94a3.87 3.87 0 0 0 .51-4.49 12.46 12.46 0 0 0-2.19-3 31.28 31.28 0 0 0-3.84-3.18 55.83 55.83 0 0 0-12.56-6.73 41.88 41.88 0 0 0-14.2-3c-1.42 0-2.83.25-4.16.76-.78.3-1.47.8-2 1.44a3.74 3.74 0 0 0-.8 2.6v.1a15.81 15.81 0 0 0-6.05 3c-.06 0-.11.08-.17.12l-.65.56-1.06.92a50.67 50.67 0 0 0-7.62 7.93 46.11 46.11 0 0 0-4.48 7.48c-.55 1.34-1.21 2.65-1.64 4.04l-.7 2.06-.57 2.11c-1 4.04-1.54 8.18-1.6 12.35A43.4 43.4 0 0 0 22 336.9c-1.77 1.17-3.74 3-3.74 5.82.01.56.1 1.12.25 1.66-9.63-3.57-20.24-7.48-31.97-11.84-4.48 7.86-10.9 19.22-10.9 40.6 0 2.84.13 5.68.42 8.51A110.88 110.88 0 0 0-55 397.28V705H958.43Z" fill="#002776"/>
    <path d="m870.09 428.2 1.62-.63 2.11 2.43h.12c4.23 1.08 15.29 3.62 25.67 3.62 5.03 0 9.9-.6 13.75-2.25l.2-.09.04-.2.69-3.75a264.72 264.72 0 0 0 3.78-34.4c4.38.75 10.3-3 13.13-11.63 2-6.1 1.55-10.53-1.33-13.15.5-1.64.98-3.3 1.4-4.95l.32-1.4c.12-.16.2-.35.26-.55.77-2.87.97-5.86.6-8.8a34.35 34.35 0 0 0-5.9-15.19 21.35 21.35 0 0 0-1.87-2.42l-1-1.18-1.06-1.06a35.34 35.34 0 0 0-13.82-8.33 62.33 62.33 0 0 0-14.49-2.99c-.58-.05-1.17-.08-1.75-.07h-.93c-5.22-.03-10.42.7-15.43 2.17l-.68.21c-.46.13-.9.28-1.34.47l-1.84.83-.6.26c-.4.17-.79.37-1.17.59l-1.57.99-.55.35c-.4.25-.8.5-1.19.81l-2.99 2.58-1.25 1.4-.62.67c-.41.42-.8.87-1.16 1.34l-1.5 2.17a38.88 38.88 0 0 0-4.41 9.15 1.41 1.41 0 0 0 .13 1.44c-.21 1.35-.34 2.7-.38 4.06-.71 2.62-1.3 4.95-1.79 7.13-.04.21-4.07 20.49-2.18 36.74 1.12 7.03 2.66 16.65 11.47 25.11a23.68 23.68 0 0 0 4.54 2.84c.97.47 1.97.89 2.99 1.25v3.82l-.02.61Z" fill="#002776"/>
  </g>
  <defs>
    <clipPath id="a">
      <path fill="#fff" transform="translate(-55)" d="M0 0h1042v705H0z"/>
    </clipPath>
    <clipPath id="b">
      <path fill="#fff" transform="translate(345.53 144.3)" d="M0 0h156.21v171.28H0z"/>
    </clipPath>
  </defs>
</svg>
