<svg width="352" height="342" viewBox="0 0 352 342"  fill="none" xmlns="http://www.w3.org/2000/svg">
<path d="M350.207 164.612C333.968 259.712 273.249 356.279 175.52 339.294C80.4655 322.778 10.1965 260.632 0.832188 164.607C-8.93288 64.4442 68.5442 8.17371 164.716 0.536629C258.828 -6.93675 367.305 64.4499 350.207 164.612Z" fill="#F2F2F9"/>
<path d="M95.7617 157.744L99.1089 155.413C101.559 159.714 104.607 161.565 109.083 161.565C114.936 161.565 118.758 157.919 118.758 153.206C118.876 149.559 116.545 147.471 112.786 146.156L105.679 143.65C100.424 141.736 97.6752 138.575 97.6752 133.495C97.6752 125.372 105.024 121.907 110.398 121.907C115.597 121.907 120.135 124.413 122.342 128.895L119.412 130.684C117.2 127.162 114.513 125.547 110.274 125.547C106.452 125.547 101.79 127.817 101.79 132.953C101.79 136.419 103.342 138.507 107.344 139.879L114.332 142.329C119.887 144.299 122.935 147.527 122.935 152.664C122.935 159.889 116.901 165.505 109.258 165.505C102.925 165.511 98.2115 162.045 95.7617 157.744Z" fill="#002776"/>
<path d="M170.603 143.051C170.603 137.553 168.215 135.047 163.434 135.047C158.061 135.047 154.115 139.168 154.115 145.202V164.613H150.35V143.051C150.35 137.553 147.962 135.047 143.125 135.047C137.808 135.047 133.806 139.168 133.806 145.202V164.613H130.041V132.479H133.806V138.75C135.121 135.104 138.942 131.582 144.378 131.582C148.978 131.582 152.619 133.913 153.754 138.507C155.543 134.805 159.427 131.582 164.625 131.582C170.179 131.582 174.362 134.985 174.362 141.793V164.608H170.597V143.051H170.603Z" fill="#002776"/>
<path d="M206.865 164.614H203.1V158.4C201.728 162.164 197.726 165.506 192.166 165.506C186.55 165.506 182.373 161.984 182.373 154.815V132.474H186.138V154.098C186.138 159.534 188.768 162.04 193.544 162.04C199.041 162.04 203.1 157.976 203.1 151.886V132.474H206.865V164.614Z" fill="#002776"/>
<path d="M243.781 164.613V157.981C240.913 162.638 235.957 165.505 230.279 165.505C221.202 165.505 213.972 158.455 213.972 148.543C213.972 138.626 221.197 131.581 230.279 131.581C235.952 131.581 240.913 134.449 243.781 139.049V119.22H247.602V164.613H243.781ZM243.781 148.543C243.781 140.359 237.989 135.222 230.939 135.222C223.771 135.222 218.036 140.359 218.036 148.543C218.036 156.784 223.771 161.864 230.939 161.864C237.989 161.864 243.781 156.728 243.781 148.543Z" fill="#002776"/>
<path d="M105.551 178.578H138.758V186.853H126.842V219.078H117.41V186.853H105.551V178.578Z" fill="#EE8D9C"/>
<path d="M154.151 219.942C144.549 219.942 137.432 212.999 137.432 203.279C137.432 193.503 145.012 186.616 154.269 186.616C162.544 186.616 169.081 192.515 169.081 202.235V205.65H146.864C147.789 209.99 151.086 212.242 155.195 212.242C159.073 212.242 161.788 210.972 164.334 208.596L168.849 213.456C164.734 217.972 159.474 219.942 154.151 219.942ZM146.977 199.633H160.456C159.705 195.642 157.391 193.965 154.382 193.965C150.967 193.965 148.015 195.76 146.977 199.633Z" fill="#EE8D9C"/>
<path d="M197.54 198.074C195.57 196.048 193.262 195.066 190.654 195.066C186.144 195.066 182.554 197.843 182.554 203.279C182.554 208.252 186.138 211.379 190.829 211.379C193.606 211.379 196.44 210.34 198.641 208.195L203.151 214.269C199.392 218.259 194.532 219.936 190.247 219.936C180.878 219.936 173.297 213.168 173.297 203.273C173.297 193.497 180.878 186.61 190.247 186.61C195.164 186.61 199.448 188.343 202.976 192.046L197.54 198.074Z" fill="#EE8D9C"/>
<path d="M207.492 175.106H216.461V192.808C217.731 189.624 221.434 186.616 226.7 186.616C232.83 186.616 237.402 190.319 237.402 197.781V219.072H228.433V200.789C228.433 196.855 226.638 195.003 222.935 195.003C219.176 195.003 216.456 197.662 216.456 201.596V219.066H207.486V175.106H207.492Z" fill="#EE8D9C"/>
</svg>
